<svg xmlns="http://www.w3.org/2000/svg" 
version="1.1" 
xmlns:xlink="http://www.w3.org/1999/xlink" 
xmlns:svgjs="http://svgjs.dev/svgjs" 
width="308.7612359841165" height="304.915625" viewBox="0 0 106.00782394174519 104.68749999999999">
<rect width="1000" height="750" fill="#ffffff">
</rect>
<g transform="matrix(0.5845845845845846,0,0,0.5845845845845846,207.58158741832204,82.87400583090377)">
<svg viewBox="0 0 343 343" data-background-color="#ffffff" preserveAspectRatio="xMidYMid meet" height="999" width="1000" xmlns="http://www.w3.org/2000/svg" xmlns:xlink="http://www.w3.org/1999/xlink">
<g id="tight-bounds" transform="matrix(1,0,0,1,0.0740000000000407,0.07400000000001228)"><svg viewBox="0 0 342.85155851775386 342.85155851775386" height="342.85155851775386" width="342.85155851775386"><g><svg></svg></g><g><svg viewBox="0 0 342.85155851775386 342.85155851775386" height="342.85155851775386" width="342.85155851775386"><g><path d="M0 171.426c0-94.676 76.75-171.426 171.426-171.426 94.676 0 171.426 76.75 171.426 171.426 0 94.676-76.75 171.426-171.426 171.426-94.676 0-171.426-76.75-171.426-171.426zM171.426 338.068c92.034 0 166.642-74.608 166.642-166.642 0-92.034-74.608-166.642-166.642-166.642-92.034 0-166.642 74.608-166.642 166.642 0 92.034 74.608 166.642 166.642 166.642z" data-fill-palette-color="tertiary" fill="#ba3b0a" stroke="transparent"></path><ellipse rx="164.56874808852186" ry="164.56874808852186" cx="171.42577925887693" cy="171.42577925887693" fill="#ba3b0a" stroke="transparent" stroke-width="0" fill-opacity="1" data-fill-palette-color="tertiary"></ellipse></g><g transform="matrix(1,0,0,1,64.84655864529837,144.90289683233698)"><svg viewBox="0 0 213.1584412271571 53.04576485307992" height="53.04576485307992" width="213.1584412271571"><g><svg viewBox="0 0 213.1584412271571 53.04576485307992" height="53.04576485307992" width="213.1584412271571"><g><svg viewBox="0 0 213.15844122715714 53.04576485307993" height="53.04576485307992" width="213.1584412271571"><g><svg viewBox="0 0 213.15844122715714 53.04576485307993" height="53.04576485307993" width="213.15844122715714"><g id="textblocktransform"><svg viewBox="0 0 213.15844122715714 53.04576485307993" height="53.04576485307993" width="213.15844122715714" id="textblock"><g><svg viewBox="0 0 213.15844122715714 53.04576485307993" height="53.04576485307993" width="213.15844122715714"><g transform="matrix(1,0,0,1,0,0)"><svg width="213.15844122715714" viewBox="4.550000190734863 -35.04999923706055 142.0399932861328 35.349998474121094" height="53.04576485307993" data-palette-color="#ffffff"><path d="M11.4-16.45L11.4-16.45 8.3-16.45 8.3-0.05 4.55-0.05 4.55-35.05 14.65-35.05Q19.75-35.05 22.33-32.73 24.9-30.4 24.9-26.1L24.9-26.1Q24.9-23.1 22.83-20.6 20.75-18.1 17.7-17.7L17.7-17.7Q20.15-17.15 21.18-16.13 22.2-15.1 23.6-11.75L23.6-11.75 28.55-0.05 24.6-0.05 19.75-11.25Q18.4-14.4 16.73-15.43 15.05-16.45 11.4-16.45ZM14.45-31.85L14.45-31.85 8.3-31.85 8.3-19.65 13.95-19.65Q17.05-19.65 18.88-21.48 20.7-23.3 20.7-26.1 20.7-28.9 19.05-30.38 17.4-31.85 14.45-31.85ZM45.5-14.95L45.5-14.95 47.55-14.95Q47.55-19.5 46.4-20.88 45.25-22.25 41.3-22.25 37.35-22.25 34.6-21.2L34.6-21.2 33.9-24.1Q38.1-25.5 42.6-25.5L42.6-25.5Q51.4-25.5 51.4-16.7L51.4-16.7 51.4 0 49.2 0 47.9-2.95Q45.6-1.05 43.92-0.38 42.25 0.3 40.05 0.3L40.05 0.3Q36.55 0.3 34.6-1.78 32.65-3.85 32.65-7.25L32.65-7.25Q32.65-14.95 45.5-14.95ZM47.6-6.55L47.6-11.8 45.35-11.8Q40.25-11.8 38.32-10.8 36.4-9.8 36.4-7.68 36.4-5.55 37.5-4.2 38.6-2.85 40.37-2.85 42.15-2.85 43.77-3.68 45.4-4.5 47.6-6.55L47.6-6.55ZM58.4-21.75L58.4-25 73.75-25 73.75-22 62.75-3.25 74.35-3.25 74.35 0 58.4 0 58.4-3 69.4-21.75 58.4-21.75ZM92.34-14.95L92.34-14.95 94.39-14.95Q94.39-19.5 93.24-20.88 92.09-22.25 88.14-22.25 84.19-22.25 81.44-21.2L81.44-21.2 80.74-24.1Q84.94-25.5 89.44-25.5L89.44-25.5Q98.24-25.5 98.24-16.7L98.24-16.7 98.24 0 96.04 0 94.74-2.95Q92.44-1.05 90.77-0.38 89.09 0.3 86.89 0.3L86.89 0.3Q83.39 0.3 81.44-1.78 79.49-3.85 79.49-7.25L79.49-7.25Q79.49-14.95 92.34-14.95ZM94.44-6.55L94.44-11.8 92.19-11.8Q87.09-11.8 85.17-10.8 83.24-9.8 83.24-7.68 83.24-5.55 84.34-4.2 85.44-2.85 87.22-2.85 88.99-2.85 90.62-3.68 92.24-4.5 94.44-6.55L94.44-6.55ZM104.29-25.05L108.44-25.05 113.69-16.2 118.94-25.05 123.09-25.05 115.74-12.75 123.39 0 119.24 0 113.69-9.9 108.14 0 103.99 0 111.64-12.75 104.29-25.05ZM146.49-11.7L146.49-11.7 130.54-11.7Q130.54-6.9 132.81-4.9 135.09-2.9 138.54-2.9L138.54-2.9Q140.29-2.9 140.99-3.08 141.69-3.25 142.31-3.43 142.94-3.6 143.19-3.7L143.19-3.7Q144.44-4.05 145.34-4.35L145.34-4.35 145.94-1.45Q140.94 0.3 138.14 0.3L138.14 0.3Q132.99 0.3 129.89-2.83 126.79-5.95 126.79-12.23 126.79-18.5 129.71-22 132.64-25.5 137.11-25.5 141.59-25.5 144.09-22.6 146.59-19.7 146.59-14.75L146.59-14.75Q146.59-13.4 146.49-11.7ZM130.79-14.55L130.79-14.55 142.99-14.55Q142.99-18.25 141.69-20.25 140.39-22.25 137.16-22.25 133.94-22.25 132.44-20.1 130.94-17.95 130.79-14.55Z" opacity="1" transform="matrix(1,0,0,1,0,0)" fill="#ffffff" class="wordmark-text-0" data-fill-palette-color="quaternary" id="text-0"></path></svg></g></svg></g></svg></g></svg></g><g></g></svg></g></svg></g></svg></g></svg></g><defs></defs></svg><rect width="342.85155851775386" height="342.85155851775386" fill="none" stroke="none" visibility="hidden"></rect></g></svg></g></svg>